<mxfile host="Electron" agent="Mozilla/5.0 (Windows NT 10.0; Win64; x64) AppleWebKit/537.36 (KHTML, like Gecko) draw.io/24.7.8 Chrome/128.0.6613.36 Electron/32.0.1 Safari/537.36" version="24.7.8">
  <diagram name="Page-1" id="ZbAQMO97DnfHzgqQ5q0m">
    <mxGraphModel dx="1098" dy="1308" grid="1" gridSize="10" guides="1" tooltips="1" connect="1" arrows="1" fold="1" page="0" pageScale="1" pageWidth="827" pageHeight="1169" math="0" shadow="0">
      <root>
        <mxCell id="0" />
        <mxCell id="1" parent="0" />
        <mxCell id="5Cbsam-ALMwMCVu7LP0v-1" value="VPC (Virtual Private Cloud)" style="swimlane;whiteSpace=wrap;html=1;" vertex="1" parent="1">
          <mxGeometry x="80" y="120" width="720" height="360" as="geometry" />
        </mxCell>
        <mxCell id="5Cbsam-ALMwMCVu7LP0v-2" value="Public Subnet One" style="swimlane;whiteSpace=wrap;html=1;" vertex="1" parent="5Cbsam-ALMwMCVu7LP0v-1">
          <mxGeometry x="20" y="40" width="160" height="160" as="geometry" />
        </mxCell>
        <mxCell id="5Cbsam-ALMwMCVu7LP0v-3" value="" style="swimlane;startSize=0;" vertex="1" parent="5Cbsam-ALMwMCVu7LP0v-2">
          <mxGeometry x="20" y="40" width="120" height="80" as="geometry" />
        </mxCell>
        <mxCell id="5Cbsam-ALMwMCVu7LP0v-4" value="EC2 Instance with&lt;div&gt;&amp;nbsp;a public IP address&lt;/div&gt;" style="text;html=1;align=center;verticalAlign=middle;resizable=0;points=[];autosize=1;strokeColor=none;fillColor=none;" vertex="1" parent="5Cbsam-ALMwMCVu7LP0v-3">
          <mxGeometry x="-5" y="20" width="130" height="40" as="geometry" />
        </mxCell>
        <mxCell id="5Cbsam-ALMwMCVu7LP0v-8" value="Public Subnet Two" style="swimlane;whiteSpace=wrap;html=1;" vertex="1" parent="5Cbsam-ALMwMCVu7LP0v-1">
          <mxGeometry x="240" y="40" width="160" height="160" as="geometry" />
        </mxCell>
        <mxCell id="5Cbsam-ALMwMCVu7LP0v-9" value="" style="swimlane;startSize=0;" vertex="1" parent="5Cbsam-ALMwMCVu7LP0v-8">
          <mxGeometry x="20" y="40" width="120" height="80" as="geometry" />
        </mxCell>
        <mxCell id="5Cbsam-ALMwMCVu7LP0v-10" value="Public NAT&lt;div&gt;Gateway&lt;/div&gt;" style="text;html=1;align=center;verticalAlign=middle;resizable=0;points=[];autosize=1;strokeColor=none;fillColor=none;" vertex="1" parent="5Cbsam-ALMwMCVu7LP0v-9">
          <mxGeometry x="20" y="20" width="80" height="40" as="geometry" />
        </mxCell>
        <mxCell id="5Cbsam-ALMwMCVu7LP0v-13" value="Private Subnet Three" style="swimlane;whiteSpace=wrap;html=1;" vertex="1" parent="5Cbsam-ALMwMCVu7LP0v-1">
          <mxGeometry x="520" y="40" width="160" height="280" as="geometry" />
        </mxCell>
        <mxCell id="5Cbsam-ALMwMCVu7LP0v-14" value="" style="swimlane;startSize=0;" vertex="1" parent="5Cbsam-ALMwMCVu7LP0v-13">
          <mxGeometry x="20" y="40" width="120" height="80" as="geometry" />
        </mxCell>
        <mxCell id="5Cbsam-ALMwMCVu7LP0v-15" value="Route Table" style="text;html=1;align=center;verticalAlign=middle;resizable=0;points=[];autosize=1;strokeColor=none;fillColor=none;" vertex="1" parent="5Cbsam-ALMwMCVu7LP0v-14">
          <mxGeometry x="15" y="25" width="90" height="30" as="geometry" />
        </mxCell>
        <mxCell id="5Cbsam-ALMwMCVu7LP0v-23" style="edgeStyle=orthogonalEdgeStyle;rounded=0;orthogonalLoop=1;jettySize=auto;html=1;" edge="1" parent="5Cbsam-ALMwMCVu7LP0v-13" source="5Cbsam-ALMwMCVu7LP0v-16" target="5Cbsam-ALMwMCVu7LP0v-14">
          <mxGeometry relative="1" as="geometry" />
        </mxCell>
        <mxCell id="5Cbsam-ALMwMCVu7LP0v-16" value="" style="swimlane;startSize=0;" vertex="1" parent="5Cbsam-ALMwMCVu7LP0v-13">
          <mxGeometry x="20" y="160" width="120" height="80" as="geometry" />
        </mxCell>
        <mxCell id="5Cbsam-ALMwMCVu7LP0v-17" value="EC2 instance without&lt;div&gt;&lt;span style=&quot;background-color: initial;&quot;&gt;a public IP address&lt;/span&gt;&lt;/div&gt;" style="text;html=1;align=center;verticalAlign=middle;resizable=0;points=[];autosize=1;strokeColor=none;fillColor=none;" vertex="1" parent="5Cbsam-ALMwMCVu7LP0v-16">
          <mxGeometry x="-10" y="20" width="140" height="40" as="geometry" />
        </mxCell>
        <mxCell id="5Cbsam-ALMwMCVu7LP0v-18" value="VPC access only" style="edgeStyle=orthogonalEdgeStyle;rounded=0;orthogonalLoop=1;jettySize=auto;html=1;fontSize=12;" edge="1" parent="5Cbsam-ALMwMCVu7LP0v-1" source="5Cbsam-ALMwMCVu7LP0v-14" target="5Cbsam-ALMwMCVu7LP0v-3">
          <mxGeometry relative="1" as="geometry">
            <Array as="points">
              <mxPoint x="500" y="120" />
              <mxPoint x="500" y="240" />
              <mxPoint x="105" y="240" />
            </Array>
          </mxGeometry>
        </mxCell>
        <mxCell id="5Cbsam-ALMwMCVu7LP0v-20" value="Internet access" style="edgeStyle=orthogonalEdgeStyle;rounded=0;orthogonalLoop=1;jettySize=auto;html=1;fontSize=12;" edge="1" parent="5Cbsam-ALMwMCVu7LP0v-1" source="5Cbsam-ALMwMCVu7LP0v-14" target="5Cbsam-ALMwMCVu7LP0v-9">
          <mxGeometry x="0.125" relative="1" as="geometry">
            <mxPoint as="offset" />
          </mxGeometry>
        </mxCell>
        <mxCell id="5Cbsam-ALMwMCVu7LP0v-5" value="" style="image;aspect=fixed;perimeter=ellipsePerimeter;html=1;align=center;shadow=0;dashed=0;spacingTop=3;image=img/lib/active_directory/internet_globe.svg;" vertex="1" parent="1">
          <mxGeometry x="400" y="-40" width="80" height="80" as="geometry" />
        </mxCell>
        <mxCell id="5Cbsam-ALMwMCVu7LP0v-6" style="edgeStyle=orthogonalEdgeStyle;rounded=0;orthogonalLoop=1;jettySize=auto;html=1;" edge="1" parent="1" source="5Cbsam-ALMwMCVu7LP0v-3" target="5Cbsam-ALMwMCVu7LP0v-5">
          <mxGeometry relative="1" as="geometry">
            <Array as="points">
              <mxPoint x="280" y="240" />
              <mxPoint x="280" y="80" />
              <mxPoint x="440" y="80" />
            </Array>
          </mxGeometry>
        </mxCell>
        <mxCell id="5Cbsam-ALMwMCVu7LP0v-12" style="edgeStyle=orthogonalEdgeStyle;rounded=0;orthogonalLoop=1;jettySize=auto;html=1;" edge="1" parent="1" source="5Cbsam-ALMwMCVu7LP0v-9" target="5Cbsam-ALMwMCVu7LP0v-5">
          <mxGeometry relative="1" as="geometry">
            <Array as="points">
              <mxPoint x="280" y="240" />
              <mxPoint x="280" y="80" />
              <mxPoint x="440" y="80" />
            </Array>
          </mxGeometry>
        </mxCell>
        <mxCell id="5Cbsam-ALMwMCVu7LP0v-22" style="edgeStyle=orthogonalEdgeStyle;rounded=0;orthogonalLoop=1;jettySize=auto;html=1;" edge="1" parent="1" source="5Cbsam-ALMwMCVu7LP0v-24" target="5Cbsam-ALMwMCVu7LP0v-5">
          <mxGeometry relative="1" as="geometry">
            <Array as="points">
              <mxPoint x="440" y="80" />
            </Array>
          </mxGeometry>
        </mxCell>
        <mxCell id="5Cbsam-ALMwMCVu7LP0v-26" value="" style="edgeStyle=orthogonalEdgeStyle;rounded=0;orthogonalLoop=1;jettySize=auto;html=1;" edge="1" parent="1" source="5Cbsam-ALMwMCVu7LP0v-16" target="5Cbsam-ALMwMCVu7LP0v-24">
          <mxGeometry relative="1" as="geometry">
            <mxPoint x="810" y="360" as="sourcePoint" />
            <mxPoint x="440" as="targetPoint" />
            <Array as="points">
              <mxPoint x="820" y="360" />
              <mxPoint x="820" y="80" />
            </Array>
          </mxGeometry>
        </mxCell>
        <mxCell id="5Cbsam-ALMwMCVu7LP0v-24" value="" style="shape=mxgraph.signs.safety.no;html=1;pointerEvents=1;fillColor=#000000;strokeColor=none;verticalLabelPosition=bottom;verticalAlign=top;align=center;sketch=0;" vertex="1" parent="1">
          <mxGeometry x="640" y="60" width="40" height="40" as="geometry" />
        </mxCell>
      </root>
    </mxGraphModel>
  </diagram>
</mxfile>
